<svg width="1440" height="1024" viewBox="0 0 1440 1024" fill="none" xmlns="http://www.w3.org/2000/svg">
<rect width="1440" height="1024" fill="#E6E5E5"/>
<path fill-rule="evenodd" clip-rule="evenodd" d="M1348.75 418C1341.13 418 1333.81 421.029 1328.42 426.421C1323.03 431.812 1320 439.125 1320 446.75V449.34C1318.48 450.218 1317.22 451.48 1316.34 453C1315.46 454.52 1315 456.245 1315 458C1315 459.755 1315.46 461.48 1316.34 463C1317.22 464.52 1318.48 465.782 1320 466.66V474.25C1320 477.897 1321.45 481.394 1324.03 483.973C1326.61 486.551 1330.1 488 1333.75 488H1376.25C1379.9 488 1383.39 486.551 1385.97 483.973C1388.55 481.394 1390 477.897 1390 474.25V466.66C1391.52 465.782 1392.78 464.52 1393.66 463C1394.54 461.48 1395 459.755 1395 458C1395 456.245 1394.54 454.52 1393.66 453C1392.78 451.48 1391.52 450.218 1390 449.34V446.75C1390 439.125 1386.97 431.812 1381.58 426.421C1376.19 421.029 1368.88 418 1361.25 418H1348.75ZM1385 455.5H1325C1324.34 455.5 1323.7 455.763 1323.23 456.232C1322.76 456.701 1322.5 457.337 1322.5 458C1322.5 458.663 1322.76 459.299 1323.23 459.768C1323.7 460.237 1324.34 460.5 1325 460.5H1385C1385.66 460.5 1386.3 460.237 1386.77 459.768C1387.24 459.299 1387.5 458.663 1387.5 458C1387.5 457.337 1387.24 456.701 1386.77 456.232C1386.3 455.763 1385.66 455.5 1385 455.5ZM1382.5 448V446.75C1382.5 441.114 1380.26 435.709 1376.28 431.724C1372.29 427.739 1366.89 425.5 1361.25 425.5H1348.75C1343.11 425.5 1337.71 427.739 1333.72 431.724C1329.74 435.709 1327.5 441.114 1327.5 446.75V448H1382.5ZM1370 468H1382.5V474.25C1382.5 477.7 1379.7 480.5 1376.25 480.5H1333.75C1330.3 480.5 1327.5 477.7 1327.5 474.25V468H1360L1365 473L1370 468Z" fill="#492FE8" fill-opacity="0.1"/>
<g clip-path="url(#clip0_2_18)">
<path d="M319.216 498.455C318.488 498.693 317.846 499.141 317.372 499.743C316.897 500.345 316.613 501.074 316.553 501.838C316.493 502.602 316.661 503.367 317.036 504.035C317.411 504.704 317.976 505.246 318.659 505.594C319.342 505.941 320.113 506.078 320.874 505.988C321.635 505.897 322.352 505.583 322.934 505.085C323.517 504.587 323.939 503.927 324.146 503.19C324.354 502.452 324.338 501.669 324.101 500.94C323.783 499.963 323.089 499.152 322.173 498.686C321.257 498.22 320.194 498.137 319.216 498.455ZM313.842 481.948C313.113 482.185 312.471 482.633 311.997 483.236C311.523 483.838 311.238 484.567 311.179 485.331C311.119 486.095 311.287 486.86 311.662 487.528C312.037 488.197 312.602 488.739 313.285 489.086C313.968 489.434 314.738 489.571 315.5 489.481C316.261 489.39 316.978 489.076 317.56 488.578C318.143 488.08 318.564 487.42 318.772 486.682C318.98 485.945 318.964 485.162 318.726 484.433C318.408 483.456 317.715 482.645 316.799 482.179C315.883 481.713 314.819 481.63 313.842 481.948ZM329.101 485.131C328.124 485.449 327.313 486.142 326.847 487.058C326.381 487.974 326.298 489.038 326.616 490.015L327.815 493.7C328.134 494.677 328.827 495.488 329.743 495.954C330.659 496.42 331.722 496.503 332.7 496.185C333.677 495.866 334.488 495.173 334.954 494.257C335.42 493.341 335.503 492.278 335.185 491.3L333.985 487.616C333.667 486.639 332.974 485.828 332.058 485.362C331.142 484.896 330.078 484.813 329.101 485.131ZM358.705 469.665C357.196 469.347 355.638 469.333 354.124 469.624C352.609 469.914 351.167 470.503 349.882 471.356C348.54 472.228 347.4 473.377 346.538 474.727L295.747 463.918C295.081 463.777 294.39 463.814 293.744 464.024C293.097 464.235 292.517 464.612 292.062 465.118C291.597 465.623 291.275 466.243 291.128 466.913C290.981 467.584 291.015 468.282 291.226 468.935L307.025 517.462C305.09 518.903 303.662 520.922 302.947 523.227C302.233 525.533 302.269 528.005 303.051 530.289C303.988 533.17 306.013 535.572 308.695 536.983C311.377 538.393 314.504 538.701 317.409 537.84L319.546 537.144C331.61 533.185 342.412 526.104 350.855 516.62C359.298 507.136 365.081 495.587 367.617 483.146C368.175 480.185 367.561 477.123 365.905 474.606C364.249 472.089 361.681 470.314 358.742 469.653L358.705 469.665ZM300.671 472.91L343.962 482.085C341.883 489.434 338.105 496.191 332.934 501.811C327.762 507.43 321.342 511.755 314.191 514.436L300.671 472.91ZM360.03 481.622C357.698 493.041 352.304 503.61 344.425 512.198C336.546 520.786 326.48 527.069 315.304 530.374C314.327 530.693 313.264 530.609 312.348 530.143C311.432 529.677 310.738 528.867 310.42 527.889C310.257 527.397 310.194 526.876 310.235 526.358C310.277 525.841 310.422 525.337 310.662 524.877C311.137 523.984 311.942 523.312 312.905 523.005L314.784 522.393C324.244 519.309 332.715 513.768 339.332 506.337C345.949 498.906 350.473 489.851 352.443 480.098C352.535 479.621 352.726 479.169 353.003 478.77C353.28 478.371 353.638 478.034 354.053 477.781C354.899 477.224 355.929 477.02 356.924 477.213C357.917 477.392 358.802 477.952 359.389 478.773C359.976 479.594 360.219 480.612 360.067 481.61L360.03 481.622Z" fill="#492FE8" fill-opacity="0.15"/>
</g>
<path d="M50.5 853.938C50.5 853.324 50.2564 852.736 49.8227 852.302C49.389 851.869 48.8008 851.625 48.1875 851.625C47.5742 851.625 46.986 851.869 46.5523 852.302C46.1186 852.736 45.875 853.324 45.875 853.938V867.812C45.8745 870.478 46.7949 873.062 48.4805 875.127C50.1661 877.192 52.5133 878.611 55.125 879.144V914.062C55.125 914.676 55.3686 915.264 55.8023 915.698C56.236 916.131 56.8242 916.375 57.4375 916.375C58.0508 916.375 58.639 916.131 59.0727 915.698C59.5064 915.264 59.75 914.676 59.75 914.062V879.144C62.3617 878.611 64.7089 877.192 66.3945 875.127C68.0801 873.062 69.0005 870.478 69 867.812V853.938C69 853.324 68.7564 852.736 68.3227 852.302C67.889 851.869 67.3008 851.625 66.6875 851.625C66.0742 851.625 65.486 851.869 65.0523 852.302C64.6186 852.736 64.375 853.324 64.375 853.938V867.812C64.3758 869.248 63.9313 870.648 63.103 871.82C62.2747 872.992 61.1032 873.878 59.75 874.357V853.938C59.75 853.324 59.5064 852.736 59.0727 852.302C58.639 851.869 58.0508 851.625 57.4375 851.625C56.8242 851.625 56.236 851.869 55.8023 852.302C55.3686 852.736 55.125 853.324 55.125 853.938V874.357C53.7718 873.878 52.6003 872.992 51.772 871.82C50.9437 870.648 50.4992 869.248 50.5 867.812V853.938ZM82.875 914.062V884H75.9375C75.3242 884 74.736 883.756 74.3023 883.323C73.8686 882.889 73.625 882.301 73.625 881.688V863.188C73.625 860.121 75.1327 857.254 77.1909 855.191C79.2536 853.133 82.1211 851.625 85.1875 851.625C85.8008 851.625 86.389 851.869 86.8227 852.302C87.2564 852.736 87.5 853.324 87.5 853.938V914.062C87.5 914.676 87.2564 915.264 86.8227 915.698C86.389 916.131 85.8008 916.375 85.1875 916.375C84.5742 916.375 83.986 916.131 83.5523 915.698C83.1186 915.264 82.875 914.676 82.875 914.062Z" fill="#492FE8" fill-opacity="0.1"/>
<path fill-rule="evenodd" clip-rule="evenodd" d="M159.883 29.8522C181.594 33.6559 196.736 49.378 214.715 62.1526C239.401 79.6919 278.698 87.0401 282.682 117.101C286.698 147.404 251.748 166.009 231.512 188.882C208.984 214.344 193.774 253.777 159.883 255.898C125.514 258.049 99.7484 225.766 78.7135 198.444C60.6925 175.036 52.4531 146.66 53.0281 117.101C53.59 88.2128 59.4651 57.12 81.8174 38.869C102.928 21.6319 133.06 25.1527 159.883 29.8522Z" fill="#492FE8" fill-opacity="0.06"/>
<path fill-rule="evenodd" clip-rule="evenodd" d="M511.587 816.752C508.395 800.801 515.159 786.179 519.136 770.395C524.596 748.722 519.137 719.727 538.748 708.944C558.517 698.074 580.665 717.137 601.812 724.937C625.353 733.62 656.546 733.533 667.072 756.277C677.746 779.342 662.434 805.702 649.268 827.48C637.988 846.138 620.674 859.397 600.188 866.91C580.167 874.252 557.209 878.529 538.675 868.037C521.171 858.127 515.531 836.46 511.587 816.752Z" fill="#492FE8" fill-opacity="0.06"/>
<path fill-rule="evenodd" clip-rule="evenodd" d="M736.485 1.015C771.113 -6.25542 803.341 26.8919 821.865 57.0629C837.356 82.2951 826.539 113.07 823.361 142.514C820.715 167.024 822.781 194.019 805.214 211.3C787.736 228.493 760.989 227.715 736.485 227.975C711.598 228.238 686.952 226.653 666.286 212.772C640.263 195.291 605.688 173.678 609.255 142.514C612.83 111.281 659.704 110.066 680.715 86.6978C704.399 60.3579 701.834 8.29019 736.485 1.015Z" fill="#492FE8" fill-opacity="0.09"/>
<defs>
<clipPath id="clip0_2_18">
<rect width="93" height="93" fill="white" transform="translate(272.889 462.68) rotate(-18.0337)"/>
</clipPath>
</defs>
</svg>
